# xmcd
#
# Track frame offsets: 
#        150
#        14038
#        22640
#        42450
#        54726
#        69485
#        84467
#        99380
#
# Disc length: 1493 seconds
#
# Revision: 0
# Processed by: cddbd v1.5PL3 Copyright (c) Steve Scherf et al.
# Submitted via: ExactAudioCopy v0.95a5
#
DISCID=5f05d308
DTITLE=Holly Golightly - Live In America
DYEAR=2000
DGENRE=Blues
TTITLE0=Directly From Your Heart
TTITLE1=Length Of Pipe
TTITLE2=Your Love Is Mine
TTITLE3=Wherever You Were
TTITLE4=Comedy Time
TTITLE5=Won't Go Out
TTITLE6=Stain
TTITLE7=Run Cold
EXTD=
EXTT0=
EXTT1=
EXTT2=
EXTT3=
EXTT4=
EXTT5=
EXTT6=
EXTT7=
PLAYORDER=
